<?xml version="1.0" standalone="no"?>
<!DOCTYPE svg PUBLIC "-//W3C//DTD SVG 20010904//EN"
 "http://www.w3.org/TR/2001/REC-SVG-20010904/DTD/svg10.dtd">
<svg version="1.0" xmlns="http://www.w3.org/2000/svg"
 width="1024.000000pt" height="1024.000000pt" viewBox="0 0 1024.000000 1024.000000"
 preserveAspectRatio="xMidYMid meet">

<g transform="translate(0.000000,1024.000000) scale(0.100000,-0.100000)"
fill="#000000" stroke="none">
<path d="M3900 8065 c0 -2 23 -16 50 -30 63 -32 66 -25 4 9 -48 27 -54 29 -54
21z"/>
<path d="M4030 7995 c0 -2 27 -18 61 -35 33 -17 95 -50 137 -74 129 -73 357
-186 337 -168 -5 5 -89 50 -185 99 -96 50 -203 107 -236 127 -61 35 -114 59
-114 51z"/>
<path d="M4340 7926 c0 -3 14 -12 30 -21 17 -9 30 -13 30 -11 0 3 -13 12 -30
21 -16 9 -30 13 -30 11z"/>
<path d="M5018 7753 c6 -2 18 -2 25 0 6 3 1 5 -13 5 -14 0 -19 -2 -12 -5z"/>
<path d="M4868 7743 c12 -2 32 -2 45 0 12 2 2 4 -23 4 -25 0 -35 -2 -22 -4z"/>
<path d="M5183 7743 c15 -2 37 -2 50 0 12 2 0 4 -28 4 -27 0 -38 -2 -22 -4z"/>
<path d="M4745 7725 c-36 -8 -48 -13 -30 -13 17 0 53 6 80 13 64 16 28 16 -50
0z"/>
<path d="M5398 7713 c7 -3 16 -2 19 1 4 3 -2 6 -13 5 -11 0 -14 -3 -6 -6z"/>
<path d="M4613 7703 c15 -2 37 -2 50 0 12 2 0 4 -28 4 -27 0 -38 -2 -22 -4z"/>
<path d="M4395 7579 c-5 -5 -19 -17 -30 -25 -17 -12 -15 -12 13 1 17 8 32 20
32 25 0 12 -2 12 -15 -1z"/>
<path d="M4320 7530 c-9 -6 -10 -10 -3 -10 6 0 15 5 18 10 8 12 4 12 -15 0z"/>
<path d="M4248 7494 c-38 -20 -36 -28 2 -9 17 9 30 18 30 20 0 7 -1 6 -32 -11z"/>
<path d="M4134 7434 c-18 -14 -18 -14 6 -3 31 14 36 19 24 19 -6 0 -19 -7 -30
-16z"/>
<path d="M4063 7399 c-45 -29 -41 -34 7 -9 38 19 50 30 33 30 -5 0 -23 -10
-40 -21z"/>
<path d="M3850 7282 c-221 -118 -280 -151 -445 -244 -77 -44 -193 -110 -257
-146 -64 -37 -115 -68 -114 -70 4 -4 245 127 466 253 80 45 226 126 325 180
162 87 208 115 195 115 -3 0 -79 -40 -170 -88z"/>
<path d="M4489 7263 c-13 -15 -12 -15 9 -4 23 12 28 21 13 21 -5 0 -15 -7 -22
-17z"/>
<path d="M6167 7259 c7 -7 15 -10 18 -7 3 3 -2 9 -12 12 -14 6 -15 5 -6 -5z"/>
<path d="M4455 7240 c-4 -6 -12 -10 -18 -9 -26 3 -37 -2 -37 -16 0 -8 -6 -15
-14 -15 -8 0 -32 -17 -53 -37 -21 -20 -42 -36 -48 -34 -5 1 -7 -1 -3 -4 9 -10
-9 -45 -24 -45 -6 0 -5 7 3 18 13 15 12 16 -4 3 -10 -8 -16 -20 -13 -27 2 -7
-5 -20 -16 -31 -14 -12 -18 -13 -13 -3 8 13 7 13 -8 1 -9 -7 -17 -18 -17 -23
0 -5 -12 -25 -26 -43 -15 -20 -23 -39 -18 -46 4 -7 3 -9 -3 -6 -15 10 -99
-168 -122 -258 -12 -46 -25 -146 -30 -230 l-10 -150 5 160 c2 88 7 176 9 195
5 32 4 33 -6 10 -6 -14 -14 -77 -18 -140 -11 -153 -14 -1128 -4 -1132 5 -2
303 -1 663 2 l655 6 -505 4 c-278 2 -468 6 -422 7 45 2 82 8 82 13 0 6 -9 10
-20 10 -38 0 -20 19 23 23 23 2 -32 4 -122 5 -90 1 -162 4 -160 6 2 2 75 6
163 9 87 3 161 8 164 11 3 3 -3 6 -14 7 -10 0 -53 3 -94 6 -41 3 -123 6 -182
7 l-108 1 -2 510 -3 510 -4 -540 c-2 -309 -7 -519 -11 -490 -12 75 -11 956 0
1060 11 92 38 201 47 191 3 -3 18 29 32 72 38 114 106 225 194 318 43 46 78
86 77 89 -1 4 2 10 6 13 4 4 4 1 0 -5 -11 -20 9 -15 29 7 10 11 15 20 12 20
-3 0 -9 -5 -12 -10z"/>
<path d="M3553 7177 c-138 -71 -156 -72 -27 -1 47 25 83 48 80 51 -3 3 -24 -6
-48 -21 -24 -14 -63 -35 -88 -47 -25 -12 -76 -41 -115 -64 -38 -23 -118 -68
-178 -99 -65 -35 -105 -62 -101 -68 4 -7 2 -8 -4 -4 -7 4 -20 2 -29 -4 -17
-11 -17 -11 0 -6 11 3 15 2 12 -4 -3 -6 -12 -10 -18 -10 -7 0 -23 -9 -37 -21
-14 -11 -38 -29 -55 -41 l-30 -22 19 22 c24 27 7 29 -27 2 -14 -11 -30 -20
-35 -20 -6 0 -23 -16 -39 -35 -15 -19 -50 -61 -77 -92 -53 -63 -108 -170 -130
-256 -9 -34 -17 -140 -22 -279 -4 -122 -10 -245 -14 -273 -9 -74 -23 207 -18
377 3 125 6 137 36 202 18 37 32 74 32 82 0 7 9 30 21 51 16 29 16 33 2 14
-40 -53 -74 -125 -92 -199 -17 -66 -20 -113 -21 -342 -1 -246 -2 -266 -20
-284 -10 -10 -133 -88 -272 -171 l-253 -153 -7 47 c-3 25 -7 195 -8 376 -1
182 -6 373 -10 425 l-7 95 -3 -140 c-3 -112 -5 -128 -10 -80 -4 33 -7 -95 -8
-284 -1 -189 -4 -342 -6 -340 -2 2 -7 162 -11 354 -8 481 -14 647 -20 653 -3
3 -5 -253 -5 -569 0 -316 -3 -604 -7 -641 -6 -64 -5 -68 15 -68 11 0 38 10 59
22 46 26 494 290 611 361 84 50 113 84 111 129 l-1 23 -7 -24 c-3 -13 -18 -31
-31 -40 -24 -15 -24 -15 -11 2 8 10 9 17 3 17 -7 0 -8 11 -1 32 5 18 9 141 9
273 0 274 9 327 68 439 54 100 64 114 84 119 10 3 27 21 39 41 13 23 29 36 42
36 20 0 20 -1 -4 -27 l-24 -28 27 24 c16 14 26 26 23 29 -2 3 13 17 34 33 46
32 69 63 28 36 -21 -14 -25 -14 -21 -2 4 8 1 15 -5 15 -24 0 37 50 128 104 52
31 97 56 102 56 19 0 234 111 264 137 9 8 67 41 185 106 33 18 59 37 50 37 -3
-1 -60 -29 -127 -63z m-143 -81 c0 -2 -7 -7 -16 -10 -8 -3 -12 -2 -9 4 6 10
25 14 25 6z m-40 -21 c0 -2 -10 -9 -22 -15 -22 -11 -22 -10 -4 4 21 17 26 19
26 11z m-61 -39 c-10 -9 -109 -56 -109 -51 0 6 91 54 104 55 5 0 7 -2 5 -4z
m-650 -646 c-5 -30 -9 -163 -9 -296 0 -203 -3 -246 -16 -275 -19 -38 -53 -79
-66 -79 -5 0 -53 -29 -106 -64 -105 -69 -277 -164 -227 -124 26 20 153 100
301 187 93 56 88 34 88 355 1 236 3 286 16 301 9 11 10 16 3 11 -8 -4 -13 -1
-13 9 0 9 4 14 9 11 5 -3 12 1 15 10 12 31 14 9 5 -46z m-692 -372 c-2 -13 -4
-3 -4 22 0 25 2 35 4 23 2 -13 2 -33 0 -45z m618 -298 c-10 -11 -21 -18 -23
-15 -3 3 3 12 14 20 27 20 30 18 9 -5z m-638 -237 c-3 -10 -5 -4 -5 12 0 17 2
24 5 18 2 -7 2 -21 0 -30z m222 23 c-10 -9 -89 -46 -89 -41 0 6 72 44 84 45 5
0 7 -2 5 -4z"/>
<path d="M4041 6819 c-11 -28 -21 -57 -21 -63 1 -6 12 16 25 48 14 33 23 61
21 63 -2 2 -13 -20 -25 -48z"/>
<path d="M3003 6834 l-28 -26 33 22 c29 20 39 30 28 30 -3 0 -18 -12 -33 -26z"/>
<path d="M4006 6725 c-3 -9 -6 -24 -5 -33 0 -9 5 -4 10 12 9 32 6 48 -5 21z"/>
<path d="M7738 6713 c7 -3 16 -2 19 1 4 3 -2 6 -13 5 -11 0 -14 -3 -6 -6z"/>
<path d="M7728 6655 c-4 -22 -8 -419 -8 -881 l0 -841 -25 -25 c-13 -13 -40
-33 -60 -43 -19 -11 -35 -27 -35 -36 0 -16 4 -15 38 3 20 10 53 29 72 41 20
12 51 31 69 42 18 11 43 28 55 38 21 17 21 17 -7 7 -16 -5 -37 -15 -48 -20
-19 -11 -19 3 -21 872 -1 486 -5 820 -7 743 l-5 -140 -6 140 c-4 102 -7 129
-12 100z"/>
<path d="M2834 6638 c-33 -39 -99 -138 -91 -138 2 0 16 18 31 40 15 23 43 59
63 80 19 22 31 40 26 40 -5 0 -18 -10 -29 -22z"/>
<path d="M6502 6459 c-2 -124 20 -261 48 -294 5 -6 7 -14 4 -18 -10 -10 80
-92 152 -139 38 -24 103 -62 144 -83 103 -52 277 -163 314 -201 52 -52 98
-174 106 -279 5 -78 8 -87 17 -65 11 23 12 20 13 -25 0 -27 5 -57 10 -65 7
-10 10 29 10 120 0 203 -31 305 -116 383 -36 32 -150 101 -324 194 -99 53
-241 137 -276 163 -24 18 -61 78 -76 122 -6 18 -14 96 -18 173 l-6 140 -2
-126z m103 -329 c0 -8 26 -28 57 -44 59 -32 78 -46 62 -46 -21 1 -128 67 -141
87 -13 19 -13 21 4 19 10 -2 18 -9 18 -16z m175 -116 c0 -2 -9 0 -20 6 -11 6
-20 13 -20 16 0 2 9 0 20 -6 11 -6 20 -13 20 -16z m156 -85 c72 -41 69 -47 -6
-9 -54 27 -71 40 -54 40 4 0 31 -14 60 -31z"/>
<path d="M3039 6535 c0 -32 -2 -36 -9 -20 -8 18 -9 18 -9 2 -1 -20 34 -93 49
-102 6 -4 8 -10 5 -15 -3 -4 2 -13 10 -20 11 -9 15 -10 15 -1 0 8 12 4 30 -9
22 -15 45 -22 78 -22 69 1 81 4 75 19 -6 16 -47 17 -76 2 -16 -9 -22 -9 -25 0
-2 6 -8 9 -13 6 -4 -3 -14 3 -21 15 -7 11 -21 20 -30 20 -20 0 -68 66 -68 93
0 11 5 15 11 11 8 -4 9 1 4 17 -13 43 -25 45 -26 4z"/>
<path d="M2981 6502 c-1 -33 31 -91 75 -134 55 -55 65 -46 12 10 -47 50 -66
79 -79 121 -7 25 -7 25 -8 3z"/>
<path d="M3103 6463 c27 -29 83 -53 125 -53 24 0 105 30 99 36 -2 3 -21 -3
-43 -12 -49 -20 -120 -7 -173 33 l-36 26 28 -30z"/>
<path d="M3393 6441 c-17 -21 -46 -45 -63 -53 -18 -9 -28 -18 -23 -21 13 -8
69 34 99 74 23 31 27 39 22 39 -2 0 -17 -18 -35 -39z"/>
<path d="M4765 5990 c0 -272 1 -384 2 -247 2 136 2 358 0 495 -1 136 -2 24 -2
-248z"/>
<path d="M3105 6360 c3 -5 8 -10 11 -10 2 0 4 5 4 10 0 6 -5 10 -11 10 -5 0
-7 -4 -4 -10z"/>
<path d="M3132 6110 c-1 -129 -4 -260 -7 -290 -4 -44 -3 -50 5 -31 7 15 9 121
7 290 l-2 266 -3 -235z"/>
<path d="M3161 6058 c-1 -221 1 -269 11 -253 18 29 20 525 3 525 -10 0 -13
-64 -14 -272z"/>
<path d="M3261 6049 l-1 -276 -49 -50 c-26 -28 -120 -99 -207 -157 -88 -58
-175 -121 -194 -141 l-34 -35 0 -1210 c-1 -996 -3 -1209 -14 -1205 -7 3 -79
45 -160 93 -81 49 -218 128 -306 178 -87 49 -178 106 -201 126 -82 72 -79 41
-87 768 -4 355 -10 686 -14 735 l-5 91 41 61 c53 79 74 95 315 238 110 65 257
154 328 199 70 45 170 106 222 136 96 57 125 77 90 64 -22 -9 -295 -169 -341
-201 -41 -28 -97 -63 -189 -118 -162 -97 -201 -119 -254 -147 -30 -15 -61 -33
-70 -39 -9 -7 -2 1 14 16 17 15 99 68 183 118 249 149 262 157 385 233 65 41
120 74 124 74 3 0 38 21 77 47 39 26 87 57 106 68 19 12 48 30 63 39 16 10 26
20 23 23 -3 3 -12 1 -19 -5 -16 -13 -621 -380 -847 -513 -239 -140 -291 -185
-326 -280 -15 -40 -17 -112 -15 -749 1 -403 6 -724 12 -748 26 -118 69 -158
327 -307 112 -65 310 -182 440 -260 130 -79 240 -141 245 -138 4 2 7 134 7
292 0 364 -12 1252 -17 1247 -3 -3 -3 -540 0 -1173 1 -143 -1 -259 -4 -257
-15 9 -19 205 -20 1039 -2 803 -11 1397 -19 1240 l-3 -60 -8 85 c-10 96 -5
142 17 161 13 11 14 9 9 -17 -5 -23 -2 -20 13 13 30 63 95 120 234 205 161 99
179 119 176 201 l-1 62 -6 -62 c-13 -138 -21 -60 -22 223 -1 164 -5 310 -9
324 -4 14 -8 -97 -9 -251z m-1 -308 c-11 -21 -30 -37 -30 -25 0 8 30 44 37 44
2 0 -1 -9 -7 -19z m-40 -105 c0 -2 -8 -10 -17 -17 -16 -13 -17 -12 -4 4 13 16
21 21 21 13z m-185 -126 c-3 -5 -12 -10 -18 -10 -7 0 -6 4 3 10 19 12 23 12
15 0z m-159 -66 c-9 -9 -28 -31 -42 -50 -24 -31 -44 -37 -44 -13 0 6 5 7 10 4
6 -3 10 -1 10 5 0 14 58 70 72 70 5 0 2 -7 -6 -16z m-79 -366 c-3 -7 -5 -2 -5
12 0 14 2 19 5 13 2 -7 2 -19 0 -25z"/>
<path d="M8102 6270 c0 -19 2 -27 5 -17 2 9 2 25 0 35 -3 9 -5 1 -5 -18z"/>
<path d="M3304 6165 c0 -49 1 -71 3 -48 2 23 2 64 0 90 -2 26 -3 8 -3 -42z"/>
<path d="M8170 5885 c0 -197 2 -356 5 -353 7 7 7 700 0 706 -3 3 -5 -156 -5
-353z"/>
<path d="M6412 6200 c0 -14 2 -19 5 -12 2 6 2 18 0 25 -3 6 -5 1 -5 -13z"/>
<path d="M8105 5810 c0 -228 1 -322 2 -207 2 114 2 300 0 415 -1 114 -2 20 -2
-208z"/>
<path d="M6420 6167 c-1 -22 44 -89 84 -124 48 -43 204 -139 407 -251 168 -93
160 -87 202 -147 50 -73 57 -117 57 -387 0 -226 0 -229 20 -218 15 8 20 20 19
48 l-2 37 -7 -40 c-10 -54 -11 -36 -16 218 -2 133 0 217 6 217 5 0 11 -37 13
-82 l3 -83 2 87 c3 137 -28 196 -169 324 -31 28 -79 58 -79 50 0 -4 -8 -2 -19
3 -10 6 -33 13 -51 16 -40 7 -58 16 -59 30 0 6 -10 11 -22 11 -12 1 -25 7 -29
14 -4 6 -10 11 -14 11 -20 -3 -26 0 -20 11 5 7 2 9 -8 5 -9 -3 -32 5 -51 19
-20 13 -39 24 -42 24 -13 0 -141 88 -161 111 -12 13 -31 42 -42 64 -12 22 -21
36 -22 32z m565 -387 c3 -6 -1 -7 -9 -4 -18 7 -21 14 -7 14 6 0 13 -4 16 -10z"/>
<path d="M7674 5544 c1 -504 -1 -614 -13 -627 -15 -19 -5 -22 19 -7 13 8 15
81 15 552 1 299 -1 487 -4 418 l-6 -125 -6 200 c-3 110 -5 -75 -5 -411z"/>
<path d="M4114 5955 c0 -82 2 -115 3 -72 2 43 2 110 0 150 -1 40 -3 5 -3 -78z"/>
<path d="M3303 5895 c0 -44 2 -61 4 -37 2 23 2 59 0 80 -2 20 -4 1 -4 -43z"/>
<path d="M4398 5714 c-2 -113 0 -208 5 -211 4 -2 7 91 7 206 0 116 -2 211 -5
211 -2 0 -6 -93 -7 -206z"/>
<path d="M7634 5780 c0 -63 1 -89 3 -57 2 31 2 83 0 115 -2 31 -3 5 -3 -58z"/>
<path d="M4114 5660 c0 -80 2 -112 3 -72 2 39 2 105 0 145 -1 39 -3 7 -3 -73z"/>
<path d="M7134 5710 c27 -30 52 -57 54 -60 2 -3 -2 11 -10 30 -8 19 -24 40
-35 45 -12 6 -29 17 -39 25 -11 8 3 -10 30 -40z"/>
<path d="M7632 5235 c-1 -177 -4 -328 -7 -337 -3 -8 -40 -36 -81 -62 -40 -26
-74 -50 -74 -52 0 -6 0 -6 99 58 82 52 86 60 84 153 -1 28 -5 165 -11 305 l-9
255 -1 -320z"/>
<path d="M8171 5443 c0 -46 2 -83 7 -83 4 0 6 26 4 57 -5 101 -9 111 -11 26z"/>
<path d="M7242 5480 c0 -19 2 -27 5 -17 2 9 2 25 0 35 -3 9 -5 1 -5 -18z"/>
<path d="M8177 5323 c-3 -16 -1 -32 4 -37 5 -6 9 4 9 27 0 44 -6 48 -13 10z"/>
<path d="M7202 5255 c0 -16 2 -22 5 -12 2 9 2 23 0 30 -3 6 -5 -1 -5 -18z"/>
<path d="M8168 5209 c-3 -20 -15 -55 -26 -78 -11 -22 -16 -41 -12 -41 16 0 51
89 48 122 l-3 33 -7 -36z"/>
<path d="M7203 5170 c0 -25 2 -35 4 -22 2 12 2 32 0 45 -2 12 -4 2 -4 -23z"/>
<path d="M3960 4483 c0 -687 5 -780 46 -908 87 -267 270 -483 514 -605 173
-86 321 -120 525 -120 148 1 243 17 361 63 177 68 277 131 402 251 143 137
231 286 277 470 21 84 25 119 23 230 -1 74 -3 101 -5 63 -4 -61 -6 -67 -23
-62 -15 5 -21 -3 -34 -50 -9 -30 -18 -55 -20 -55 -1 0 -2 35 0 78 2 70 1 75
-11 51 -8 -14 -25 -72 -40 -128 -67 -266 -247 -501 -474 -619 -82 -43 -186
-82 -218 -82 -17 0 21 23 122 74 166 84 278 188 371 344 39 65 23 50 -36 -35
-30 -43 -74 -96 -99 -118 -24 -22 -41 -34 -37 -27 5 7 1 12 -10 12 -13 0 -14
3 -5 14 10 12 9 13 -7 9 -11 -2 -23 0 -26 6 -5 7 0 9 11 5 15 -4 14 -3 -2 7
-11 8 -24 14 -30 14 -5 0 -11 10 -13 23 -2 13 -14 27 -27 32 -13 5 -26 13 -29
19 -4 6 -13 8 -20 5 -8 -3 -17 0 -21 5 -3 6 -11 9 -16 6 -5 -4 -9 -2 -9 3 0 5
-9 12 -20 15 -11 3 -27 20 -35 39 -8 18 -14 28 -15 21 0 -7 -6 -10 -14 -7 -8
3 -12 13 -8 26 4 16 2 19 -8 13 -10 -6 -12 -4 -7 7 4 11 -2 17 -19 21 -27 5
-30 -2 -11 -22 10 -11 8 -11 -10 0 -11 7 -19 19 -16 26 3 7 -2 13 -10 13 -16
0 -27 20 -27 51 0 11 -3 18 -8 15 -4 -2 -22 2 -40 9 -26 12 -32 20 -32 45 0
18 -4 29 -10 25 -5 -3 -10 -2 -10 3 0 10 -30 10 -46 0 -8 -6 -21 -5 -53 1 -2
1 2 8 9 16 10 12 10 15 -4 15 -15 0 -21 12 -17 33 1 5 -3 6 -9 2 -5 -3 -10 -2
-10 2 0 5 -9 9 -20 9 -11 0 -20 -4 -20 -8 0 -4 5 -8 10 -8 6 0 2 -10 -10 -22
-11 -12 -20 -29 -21 -37 -3 -53 9 -260 16 -271 3 -5 1 -11 -3 -14 -11 -6 -26
44 -43 134 -7 41 -14 270 -18 625 -4 308 -8 547 -9 532 -1 -17 -6 -26 -13 -21
-6 3 -8 17 -5 29 3 13 2 27 -4 30 -7 4 -11 -147 -12 -447 l-2 -453 -6 582 c-3
320 -9 585 -13 589 -4 4 -8 -91 -9 -212 0 -120 -3 -203 -5 -184 -3 19 -8 39
-13 44 -6 6 -8 2 -6 -10 1 -10 -1 -32 -5 -49 -3 -16 -7 51 -8 151 0 100 -4
209 -7 242 l-7 62 257 3 256 3 -257 -1 -258 0 0 -325 c0 -179 3 -536 6 -795 5
-459 6 -471 28 -533 13 -35 39 -86 58 -114 18 -28 36 -54 38 -58 7 -11 -120 8
-166 26 -120 47 -209 143 -257 278 l-26 71 -4 726 -4 726 -111 6 c-62 4 -163
7 -224 7 l-113 0 0 -657z m428 295 c-1 -189 -4 -310 -5 -269 -3 50 -9 78 -18
85 -10 7 -16 33 -17 73 -2 35 -7 63 -13 63 -7 0 -7 3 0 8 14 10 19 89 5 97 -8
5 -8 10 1 21 9 11 8 15 -3 19 -10 4 -13 18 -11 42 1 19 -2 44 -8 54 -6 11 -6
19 0 19 18 0 21 32 5 45 -16 11 -16 12 0 18 30 12 16 23 -31 26 -70 3 -66 11
5 11 73 0 92 17 25 23 -48 3 -48 3 10 5 l57 2 -2 -342z m-279 -936 c13 -70 76
-253 111 -322 62 -123 177 -253 287 -326 66 -44 219 -108 293 -123 30 -6 98
-15 150 -19 129 -10 115 -27 -20 -26 -263 1 -508 135 -669 364 -83 119 -150
305 -169 475 -10 79 -20 1186 -11 1225 1 8 6 -255 10 -585 4 -377 11 -623 18
-663z m23 1236 c-9 -9 -12 -129 -14 -467 -1 -407 -2 -431 -9 -226 -3 127 -7
337 -8 468 l-1 237 22 0 c17 0 19 -3 10 -12z m168 -333 c0 -67 -16 -73 -22 -7
-3 39 3 61 20 62 1 0 2 -25 2 -55z m547 -102 c-2 -16 -4 -3 -4 27 0 30 2 43 4
28 2 -16 2 -40 0 -55z m-547 -13 c0 -11 -2 -20 -5 -20 -2 0 -9 9 -15 20 -9 16
-8 20 5 20 8 0 15 -9 15 -20z m87 -222 c-3 -8 -6 -5 -6 6 -1 11 2 17 5 13 3
-3 4 -12 1 -19z m-270 -280 c-3 -8 -6 -5 -6 6 -1 11 2 17 5 13 3 -3 4 -12 1
-19z m710 -350 c-3 -8 -6 -5 -6 6 -1 11 2 17 5 13 3 -3 4 -12 1 -19z"/>
<path d="M5288 5123 c7 -3 16 -2 19 1 4 3 -2 6 -13 5 -11 0 -14 -3 -6 -6z"/>
<path d="M8100 5066 c-6 -8 -45 -36 -85 -61 -57 -35 -80 -44 -102 -40 -20 4
-23 3 -9 -3 17 -7 12 -13 -36 -40 -59 -34 -73 -39 -62 -20 4 7 3 8 -5 4 -6 -4
-9 -11 -6 -16 8 -12 -33 -33 -47 -24 -7 4 -8 3 -4 -4 4 -6 -6 -18 -23 -27 -35
-18 -45 -19 -35 -4 3 6 -12 0 -34 -12 -26 -15 -36 -26 -29 -31 9 -6 8 -8 -3
-9 -8 -1 -19 -1 -23 0 -5 1 -22 -9 -40 -21 -17 -12 -37 -23 -43 -24 -7 -1 -25
-11 -41 -23 -15 -12 -38 -23 -51 -26 -12 -2 -36 -13 -52 -25 -17 -12 -30 -19
-30 -15 0 3 -11 -5 -24 -19 -27 -30 -36 -32 -36 -11 0 8 16 30 35 50 37 36 58
48 34 18 -13 -15 -12 -15 6 -5 11 6 27 16 35 23 12 9 12 10 -5 5 -14 -4 -9 4
15 25 33 30 33 30 5 14 -16 -10 -39 -24 -50 -32 -11 -7 -23 -13 -26 -13 -4 0
-8 77 -9 172 -1 190 -18 270 -22 103 l-2 -100 -5 80 -6 80 -7 -64 c-5 -35 -9
-85 -9 -110 -2 -46 -2 -46 -9 -11 -6 30 -8 25 -11 -35 -2 -38 -4 -95 -4 -125
-1 -31 -8 -68 -18 -85 -16 -29 -16 -30 6 -38 22 -8 22 -9 -5 -23 -16 -8 -28
-17 -28 -20 0 -6 28 9 125 66 44 26 157 92 250 145 94 54 218 126 277 161 59
35 110 64 114 64 12 0 154 103 154 111 0 13 -6 11 -20 -5z m-695 -416 c-3 -5
-12 -10 -18 -10 -7 0 -6 4 3 10 19 12 23 12 15 0z"/>
<path d="M7177 4973 c-4 -3 -7 -18 -6 -32 1 -26 1 -25 10 3 9 31 7 41 -4 29z"/>
<path d="M2002 4940 c0 -14 2 -19 5 -12 2 6 2 18 0 25 -3 6 -5 1 -5 -13z"/>
<path d="M7170 4722 c0 -106 3 -192 8 -192 8 0 6 369 -2 378 -4 3 -6 -81 -6
-186z"/>
<path d="M7515 4789 c-38 -21 -71 -43 -73 -49 -5 -15 26 -1 80 36 26 18 53 34
60 37 7 2 11 7 8 9 -3 3 -36 -12 -75 -33z"/>
<path d="M2913 4600 c0 -25 2 -35 4 -22 2 12 2 32 0 45 -2 12 -4 2 -4 -23z"/>
<path d="M6016 4624 c-11 -28 -7 -622 4 -629 7 -4 10 105 10 319 0 179 -2 326
-4 326 -2 0 -7 -7 -10 -16z"/>
<path d="M2705 3830 c0 -415 1 -585 2 -378 2 208 2 548 0 755 -1 208 -2 38 -2
-377z"/>
<path d="M7635 4550 c-3 -6 1 -7 9 -4 18 7 21 14 7 14 -6 0 -13 -4 -16 -10z"/>
<path d="M7574 4514 c-18 -14 -18 -15 4 -4 12 6 22 13 22 15 0 8 -5 6 -26 -11z"/>
<path d="M7460 4452 c-148 -84 -782 -438 -873 -487 -59 -33 -126 -74 -148 -93
-49 -42 -88 -120 -118 -232 -81 -304 -144 -430 -298 -591 -138 -144 -342 -260
-750 -426 -7 -3 -13 -11 -13 -18 0 -13 158 -94 350 -180 52 -23 158 -73 235
-110 271 -130 326 -155 343 -155 16 0 177 87 547 295 77 43 174 97 215 120 65
36 415 237 962 552 208 119 269 192 282 333 3 35 2 38 -4 15 l-7 -30 -2 29
c-2 49 -12 22 -15 -41 -3 -47 -24 -110 -51 -151 -1 -1 -10 0 -19 4 -18 7 -22
34 -5 34 6 0 9 6 7 12 -3 7 1 32 9 57 10 33 13 149 12 500 0 251 -5 465 -10
476 -5 12 -7 -168 -5 -457 3 -286 1 -480 -5 -483 -5 -4 -9 -12 -9 -20 0 -26
-65 -84 -140 -126 -41 -23 -133 -74 -205 -113 -71 -40 -242 -135 -380 -213
-137 -77 -380 -212 -540 -298 -159 -87 -364 -199 -454 -248 -103 -57 -174 -90
-192 -89 -25 1 -246 98 -370 163 l-45 24 235 126 c435 233 1359 745 1453 805
21 13 39 24 41 24 3 0 21 -13 42 -30 21 -16 47 -30 59 -30 15 1 8 8 -25 25
-26 13 -49 32 -53 41 -6 16 -5 16 16 0 51 -37 111 -58 166 -57 30 0 57 3 60 6
3 3 -19 5 -49 5 -82 0 -150 36 -178 92 -51 106 -2 216 111 254 41 13 57 14 96
4 26 -6 58 -18 72 -26 l25 -15 -23 20 c-27 23 -82 41 -127 41 -67 -1 -166 -74
-181 -135 -6 -26 -1 -105 10 -145 7 -23 6 -23 -7 -7 -8 9 -19 17 -26 17 -18 0
-13 75 10 143 21 62 35 88 47 85 11 -2 62 24 62 32 0 14 53 30 98 30 55 -1
148 -30 145 -47 -1 -6 8 -19 20 -29 l22 -19 -20 24 c-14 17 -16 23 -5 19 8 -2
25 -19 38 -38 12 -18 22 -28 22 -23 0 6 -13 28 -29 50 -34 47 -89 73 -172 80
-130 12 -227 -59 -265 -196 -10 -33 -27 -69 -38 -80 -22 -21 -382 -219 -756
-416 -124 -65 -306 -164 -405 -218 -99 -55 -288 -155 -419 -223 l-239 -123
-64 27 -65 26 99 28 c54 15 108 28 120 28 53 0 353 129 408 175 19 16 19 16
-3 5 -37 -18 -37 -5 0 18 43 27 196 184 235 242 71 105 119 235 153 415 11 61
32 134 46 162 38 80 96 120 389 273 77 40 174 92 215 115 122 69 176 98 365
200 205 110 254 144 90 62 -118 -60 -145 -71 -158 -68 -5 1 -5 -4 -1 -10 5 -8
2 -10 -9 -6 -17 6 -361 -163 -378 -187 -4 -4 -9 -2 -12 5 -4 10 -6 10 -6 2 -1
-7 -7 -13 -14 -13 -7 0 -17 -8 -23 -17 -16 -25 -107 -70 -112 -55 -2 7 -9 9
-14 6 -7 -5 -8 -2 -4 5 5 7 15 10 22 7 15 -6 82 31 120 66 11 10 31 20 43 23
21 4 91 42 101 55 3 4 30 19 60 34 30 15 62 33 70 40 8 7 40 27 70 45 30 17
62 36 70 41 8 5 50 27 93 50 43 23 76 45 73 47 -3 3 -11 1 -18 -4 -7 -5 -56
-33 -108 -60 -52 -28 -185 -100 -295 -160 -110 -60 -283 -154 -385 -207 -250
-133 -289 -160 -322 -222 -17 -31 -42 -114 -64 -210 -33 -143 -94 -327 -114
-339 -4 -2 8 33 26 80 20 49 50 163 73 277 58 282 66 297 229 384 48 26 130
71 182 99 162 89 202 111 300 163 144 75 239 129 250 141 11 12 70 51 77 51 4
0 33 16 63 35 64 40 56 45 -10 7z m-600 -467 c0 -10 -121 -65 -142 -65 -22 1
-22 1 -5 15 11 7 26 11 35 8 11 -5 13 -3 7 7 -5 9 -4 11 3 6 6 -4 28 2 49 13
39 20 53 25 53 16z m-170 -89 c0 -8 -92 -58 -97 -53 -3 3 17 17 44 31 53 28
53 28 53 22z m-130 -70 c0 -2 -7 -7 -16 -10 -8 -3 -12 -2 -9 4 6 10 25 14 25
6z m-189 -113 c-12 -20 -14 -14 -5 12 4 9 9 14 11 11 3 -2 0 -13 -6 -23z
m1724 -443 c-8 -14 -94 -54 -101 -48 -7 8 69 57 89 57 10 1 15 -4 12 -9z
m-130 -10 c-3 -5 -12 -10 -18 -10 -7 0 -6 4 3 10 19 12 23 12 15 0z m5 -55
c-11 -13 -10 -15 6 -9 18 5 18 5 -1 -10 -11 -9 -25 -14 -33 -11 -7 2 -10 1 -7
-5 3 -5 -5 -14 -17 -21 -22 -12 -22 -11 -8 6 14 17 14 17 -7 7 -53 -28 -42 -8
12 22 70 40 72 41 55 21z m-1773 -102 c-25 -32 -62 -74 -83 -93 -27 -24 -23
-18 12 20 28 30 63 74 79 98 15 23 30 40 33 38 2 -3 -16 -31 -41 -63z m1613 7
c-8 -5 -19 -10 -25 -10 -5 0 -3 5 5 10 8 5 20 10 25 10 6 0 3 -5 -5 -10z"/>
<path d="M7714 4415 c-10 -8 -14 -14 -9 -14 6 0 19 6 29 14 11 8 15 15 10 15
-6 0 -19 -7 -30 -15z"/>
<path d="M6103 4195 c0 -22 2 -30 4 -17 2 12 2 30 0 40 -3 9 -5 -1 -4 -23z"/>
<path d="M2195 4160 c7 -11 45 -20 45 -10 0 4 -11 10 -25 12 -13 3 -22 2 -20
-2z"/>
<path d="M6102 4125 c0 -16 2 -22 5 -12 2 9 2 23 0 30 -3 6 -5 -1 -5 -18z"/>
<path d="M3070 3488 c0 -709 1 -719 57 -833 48 -97 111 -141 618 -432 105 -61
357 -206 560 -323 204 -117 408 -231 455 -254 82 -39 88 -41 180 -40 70 0 112
7 160 23 60 20 804 387 844 417 10 7 15 18 11 24 -4 7 -51 32 -104 57 -218
102 -393 184 -506 236 -461 211 -621 284 -697 318 -208 92 -406 220 -525 341
-162 165 -239 297 -302 520 -62 221 -95 262 -291 371 -52 29 -165 92 -251 140
-87 49 -167 87 -182 87 l-27 0 0 -652z m251 519 c21 -15 21 -16 2 -7 -34 16
-41 11 -10 -6 16 -9 31 -13 34 -10 6 5 69 -26 138 -69 22 -13 54 -31 71 -40
30 -15 84 -65 71 -65 -3 0 -15 9 -26 21 -10 11 -25 21 -32 23 -8 1 -24 8 -37
15 -22 12 -23 12 -11 -10 l12 -22 -39 23 c-22 13 -68 40 -104 60 -141 80 -160
92 -165 101 -10 15 -25 10 -19 -5 3 -8 54 -41 112 -74 59 -32 149 -85 200
-116 120 -75 146 -113 202 -301 52 -176 112 -304 194 -414 57 -76 166 -194
166 -180 0 3 -21 27 -48 55 -26 27 -58 65 -71 84 -13 19 6 2 43 -38 37 -39 73
-69 78 -66 6 4 8 2 4 -4 -5 -9 62 -72 78 -72 4 0 57 -34 119 -76 61 -42 104
-74 95 -70 -28 9 -21 0 20 -25 55 -33 1115 -566 1183 -594 l58 -25 52 20 c56
23 74 21 37 -4 -45 -29 -524 -255 -585 -275 -74 -25 -200 -28 -261 -7 -22 8
-145 74 -274 146 -128 73 -256 145 -284 161 -53 30 -82 38 -51 15 15 -12 15
-15 2 -26 -8 -7 -21 -10 -29 -7 -7 3 -17 2 -22 -3 -5 -4 -24 -6 -41 -3 -26 4
-33 10 -33 28 0 14 -10 26 -27 35 -23 11 -25 14 -10 17 9 3 17 11 17 19 0 11
6 13 21 9 50 -16 -1 20 -159 114 -195 115 -545 317 -617 356 -69 37 -90 59
-116 118 -23 52 -23 54 -26 587 -2 294 -6 545 -8 558 -15 64 -20 -1 -17 -207
2 -189 0 -230 -11 -234 -12 -5 -15 35 -19 244 -3 173 -8 253 -16 261 -18 18
-16 59 3 52 8 -4 15 -1 15 6 0 11 91 -36 141 -73z m424 -473 c6 -44 1 -37 -14
20 -7 26 -7 36 0 29 5 -5 12 -27 14 -49z m-558 -126 c-3 -7 -5 -2 -5 12 0 14
2 19 5 13 2 -7 2 -19 0 -25z m20 0 c-3 -7 -5 -2 -5 12 0 14 2 19 5 13 2 -7 2
-19 0 -25z m688 -234 c9 -15 12 -23 6 -20 -11 7 -35 46 -28 46 3 0 12 -12 22
-26z m-725 -461 c12 -27 35 -63 53 -81 18 -19 131 -93 252 -165 568 -337 685
-406 748 -441 37 -20 67 -39 67 -42 0 -8 -167 83 -390 214 -483 282 -647 382
-682 419 -45 46 -77 115 -83 180 l-4 48 9 -42 c5 -24 18 -64 30 -90z m1428
-72 c75 -38 217 -108 315 -155 97 -46 177 -87 177 -90 0 -14 -553 252 -625
301 -43 29 3 10 133 -56z m657 -327 c112 -58 156 -84 141 -84 -5 0 -48 21 -95
47 -47 25 -106 57 -131 69 -25 13 -41 23 -35 23 5 1 59 -24 120 -55z m306
-155 c22 -10 39 -21 39 -24 0 -5 -173 75 -185 87 -11 10 82 -30 146 -63z
m-1181 -224 c0 -3 -18 4 -40 15 -22 11 -40 23 -40 25 0 3 18 -4 40 -15 22 -11
40 -23 40 -25z m70 -41 c0 -2 -13 2 -30 11 -16 9 -30 18 -30 21 0 2 14 -2 30
-11 17 -9 30 -18 30 -21z m495 -179 c6 -2 -13 -4 -42 -4 -28 -1 -54 3 -57 8
-5 8 74 5 99 -4z m73 -2 c-10 -2 -26 -2 -35 0 -10 3 -2 5 17 5 19 0 27 -2 18
-5z"/>
<path d="M3431 3916 c10 -9 69 -36 69 -32 0 6 -55 36 -66 36 -4 0 -5 -2 -3 -4z"/>
<path d="M3552 3728 c47 -46 61 -74 108 -219 40 -125 123 -307 158 -349 11
-14 -7 31 -41 100 -35 69 -83 186 -107 260 -45 136 -80 198 -130 228 -17 10
-14 4 12 -20z"/>
<path d="M3623 3465 c0 -8 4 -15 9 -15 4 0 8 4 8 9 0 6 -4 12 -8 15 -5 3 -9
-1 -9 -9z"/>
<path d="M3271 3174 c0 -11 3 -14 6 -6 3 7 2 16 -1 19 -3 4 -6 -2 -5 -13z"/>
<path d="M3407 3153 c-12 -12 -7 -30 8 -30 11 0 12 4 3 14 -9 11 -7 12 7 7 13
-5 16 -4 11 4 -8 13 -19 15 -29 5z"/>
<path d="M3850 3110 c6 -11 13 -20 16 -20 2 0 0 9 -6 20 -6 11 -13 20 -16 20
-2 0 0 -9 6 -20z"/>
<path d="M3278 3007 c5 -154 14 -182 73 -239 27 -27 55 -48 61 -47 7 0 4 6 -7
12 -11 7 -36 28 -56 47 -45 43 -59 101 -59 235 0 52 -4 96 -8 99 -5 3 -7 -45
-4 -107z"/>
<path d="M3901 3030 c19 -40 182 -195 261 -248 117 -79 250 -154 452 -254 128
-65 183 -97 172 -101 -11 -5 -15 -3 -10 5 5 7 0 9 -14 6 -12 -4 -20 -3 -18 1
5 8 -36 35 -78 51 -23 8 -28 7 -37 -13 -8 -20 -9 -19 -4 6 4 17 2 26 -4 23 -5
-3 -11 -3 -13 1 -3 8 -101 63 -110 63 -13 0 -47 -38 -40 -46 4 -4 0 -3 -8 3
-8 6 -25 9 -38 7 -16 -3 -21 0 -16 8 5 7 3 8 -5 4 -7 -5 -10 -14 -7 -22 8 -20
-11 -27 -22 -7 -9 15 -12 15 -34 1 -34 -22 -98 -39 -98 -26 0 6 -13 8 -30 6
-24 -4 -27 -2 -18 9 8 10 7 12 -5 7 -8 -3 -18 -12 -21 -20 -3 -9 -11 -12 -17
-8 -8 4 -9 3 -5 -5 4 -6 12 -9 17 -5 15 9 39 -16 32 -33 -4 -9 -2 -14 3 -11
10 5 45 -27 38 -35 -3 -2 2 -7 11 -11 9 -3 18 1 22 9 5 13 7 13 20 -2 14 -17
14 -17 9 2 -6 19 -5 19 8 2 10 -13 26 -17 60 -16 26 2 46 8 46 14 0 10 28 11
100 2 14 -2 36 5 49 15 13 10 27 18 31 18 17 0 70 -64 61 -73 -5 -5 -7 -16 -4
-23 3 -8 -1 -14 -8 -14 -11 0 -11 -3 1 -10 13 -9 13 -11 0 -19 -9 -6 -17 -6
-20 -1 -3 6 -16 3 -28 -6 -13 -9 -19 -20 -15 -27 5 -9 3 -9 -8 0 -23 19 -89
-29 -87 -61 2 -19 6 -22 18 -16 16 8 22 10 41 10 8 0 7 5 -1 15 -11 13 -10 14
4 9 9 -3 16 -11 16 -17 0 -5 8 -3 19 7 10 9 32 18 49 19 16 1 28 5 26 8 -2 4
3 10 12 13 22 9 24 8 24 -10 0 -14 1 -14 16 0 8 9 20 14 25 11 5 -4 15 -3 22
2 6 4 21 9 32 10 10 2 22 7 25 11 10 16 38 20 50 9 9 -8 11 -9 7 -1 -7 11 47
25 116 29 50 4 30 -25 -48 -67 -22 -12 -42 -23 -45 -23 -16 -4 -60 -29 -60
-34 0 -4 -21 -13 -47 -21 -27 -7 -63 -22 -81 -32 -38 -21 -67 -24 -56 -5 5 8
2 8 -9 -2 -9 -7 -17 -11 -17 -7 0 3 -8 -2 -18 -12 -17 -16 -18 -19 -3 -36 20
-23 -75 25 -167 85 -35 23 -65 39 -68 36 -9 -9 462 -289 522 -311 67 -23 192
-30 244 -12 25 8 57 17 72 20 15 2 87 34 161 69 132 65 168 93 166 134 0 11
-3 13 -6 6 -2 -7 -9 -13 -15 -13 -6 0 -8 7 -4 15 3 10 -5 20 -24 30 -52 27
-33 26 28 -1 119 -54 80 -31 -103 60 -104 52 -282 134 -395 183 -113 48 -290
130 -395 181 -371 183 -541 298 -679 462 -22 26 -32 35 -25 20z m949 -615 c14
-8 21 -14 15 -14 -5 0 -21 6 -35 14 -14 8 -20 14 -15 14 6 0 21 -6 35 -14z
m235 -105 c13 -6 15 -9 5 -9 -8 0 -22 4 -30 9 -18 12 -2 12 25 0z"/>
<path d="M3430 2716 c0 -5 134 -88 180 -111 54 -27 32 -10 -59 45 -98 60 -121
72 -121 66z"/>
<path d="M4384 2611 c3 -16 -1 -29 -12 -37 -13 -10 -14 -12 -2 -11 8 2 21 7
29 11 9 6 12 5 8 -1 -4 -6 5 -15 19 -22 15 -6 23 -7 19 -1 -3 5 -1 10 5 10 6
0 9 4 6 9 -4 5 0 11 6 14 7 2 1 4 -14 4 -17 0 -36 10 -49 24 l-21 24 6 -24z"/>
<path d="M3670 2576 c0 -3 9 -10 20 -16 11 -6 20 -8 20 -6 0 3 -9 10 -20 16
-11 6 -20 8 -20 6z"/>
<path d="M3740 2537 c0 -6 208 -125 353 -202 114 -61 149 -70 45 -12 -285 158
-398 219 -398 214z"/>
<path d="M4090 2490 c0 -5 5 -10 11 -10 5 0 7 5 4 10 -3 6 -8 10 -11 10 -2 0
-4 -4 -4 -10z"/>
<path d="M4033 2475 c0 -7 6 -11 14 -8 7 3 13 -1 13 -9 0 -8 11 -21 25 -28 21
-11 27 -11 38 0 10 10 9 12 -6 7 -11 -4 -16 -3 -12 3 3 6 -1 7 -10 4 -11 -5
-14 -1 -13 16 2 17 -3 23 -23 25 -16 2 -26 -2 -26 -10z"/>
<path d="M4095 2459 c-5 -8 -4 -10 3 -5 6 4 20 1 30 -5 14 -9 24 -9 38 -1 18
11 18 11 -1 11 -11 -1 -30 2 -41 6 -13 4 -25 2 -29 -6z"/>
<path d="M4154 2432 c-14 -11 -15 -32 -1 -29 6 1 11 -5 9 -13 -3 -11 1 -10 16
3 15 14 21 15 25 5 3 -8 6 -8 6 -2 1 16 -43 44 -55 36z"/>
<path d="M4567 2413 c-14 -13 -6 -25 8 -13 13 11 14 10 9 -4 -5 -12 -2 -15 10
-10 13 5 14 9 5 20 -13 15 -22 18 -32 7z"/>
<path d="M2200 4091 c0 -6 4 -13 10 -16 6 -3 7 1 4 9 -7 18 -14 21 -14 7z"/>
<path d="M2252 4070 c2 -8 -2 -14 -9 -15 -6 0 -15 -4 -20 -9 -4 -5 -3 -6 3 -3
7 4 14 -2 17 -12 3 -15 1 -18 -12 -14 -14 4 -14 3 -1 -6 8 -6 29 -11 45 -11
22 0 31 -5 32 -18 2 -30 8 -47 17 -54 6 -4 -17 -7 -50 -7 -115 0 -114 0 -112
-33 2 -21 7 -28 18 -25 10 3 23 -7 33 -25 9 -16 13 -27 9 -24 -4 3 -14 1 -22
-5 -11 -6 -12 -9 -2 -9 7 0 33 -13 57 -30 24 -16 49 -30 56 -30 6 0 33 -13 58
-28 57 -35 162 -85 178 -85 7 0 14 -6 17 -14 3 -7 16 -13 30 -13 14 0 28 -5
32 -12 5 -7 10 -3 16 12 6 15 5 26 -2 30 -10 6 -18 36 -23 83 -1 9 -5 17 -10
17 -15 0 -38 28 -28 35 17 10 0 35 -23 35 -17 0 -19 -2 -6 -11 13 -9 13 -10 0
-6 -8 2 -14 13 -14 25 1 12 -2 20 -5 19 -4 -1 -20 9 -36 22 -29 23 -29 23 -5
17 l25 -7 -25 15 c-20 12 -21 15 -7 16 27 0 11 17 -23 25 -17 4 -28 11 -25 16
4 5 -4 5 -19 -1 -19 -7 -29 -5 -41 7 -9 8 -13 18 -10 21 3 3 11 -2 18 -12 12
-16 13 -16 14 4 1 11 -2 18 -6 15 -5 -2 -16 4 -26 15 -10 11 -24 20 -32 20 -7
0 -14 5 -14 10 -1 6 -3 15 -4 20 -1 6 -3 13 -4 18 -1 4 -8 -2 -16 -12 -11 -15
-15 -16 -15 -5 0 8 -7 24 -15 35 -10 12 -14 14 -13 4z m193 -170 c3 -5 -1 -10
-10 -10 -9 0 -13 5 -10 10 3 6 8 10 10 10 2 0 7 -4 10 -10z"/>
<path d="M2290 4070 c0 -5 5 -10 11 -10 5 0 7 5 4 10 -3 6 -8 10 -11 10 -2 0
-4 -4 -4 -10z"/>
<path d="M2072 4010 c0 -14 2 -19 5 -12 2 6 2 18 0 25 -3 6 -5 1 -5 -13z"/>
<path d="M2137 3936 c-4 -10 -1 -13 8 -9 8 3 12 9 9 14 -7 12 -11 11 -17 -5z"/>
<path d="M8173 3880 c0 -25 2 -35 4 -22 2 12 2 32 0 45 -2 12 -4 2 -4 -23z"/>
<path d="M4881 3894 c0 -11 3 -14 6 -6 3 7 2 16 -1 19 -3 4 -6 -2 -5 -13z"/>
<path d="M8183 3725 c0 -22 2 -30 4 -17 2 12 2 30 0 40 -3 9 -5 -1 -4 -23z"/>
<path d="M5136 3713 c-6 -14 -5 -15 5 -6 7 7 10 15 7 18 -3 3 -9 -2 -12 -12z"/>
<path d="M2067 3629 c-7 -45 -4 -68 13 -115 11 -33 25 -61 30 -62 6 -2 8 -8 5
-12 -6 -9 60 -26 83 -22 7 2 11 -3 10 -9 -2 -7 6 -15 16 -17 18 -4 19 -3 3 13
-9 9 -17 21 -17 26 0 14 20 11 20 -3 1 -7 8 1 16 17 8 17 12 23 10 15 -4 -19
28 -24 55 -10 24 13 14 53 -11 45 -10 -3 -21 -1 -25 4 -4 7 1 8 11 4 12 -4 15
-3 10 5 -4 7 -3 12 2 12 5 0 9 7 9 15 0 10 -4 12 -12 5 -7 -5 -14 -8 -17 -5
-3 3 -11 -1 -17 -9 -9 -11 -19 -12 -37 -6 -22 9 -28 6 -26 -11 1 -4 -8 -5 -19
-2 -14 4 -17 8 -9 13 8 5 9 13 4 21 -5 8 -9 21 -10 29 -1 8 -2 23 -3 33 0 9
-8 17 -18 17 -9 0 -14 3 -10 6 6 6 -16 34 -26 34 -3 0 -8 -12 -13 -27 -7 -27
-8 -27 -14 12 l-6 40 -7 -56z"/>
<path d="M2641 3654 c0 -11 3 -14 6 -6 3 7 2 16 -1 19 -3 4 -6 -2 -5 -13z"/>
<path d="M2662 3646 c4 -5 3 -17 -3 -27 -6 -13 -6 -19 1 -19 5 0 10 8 10 18 0
14 2 15 10 2 5 -8 10 -10 10 -4 0 6 -8 18 -17 25 -10 7 -15 10 -11 5z"/>
<path d="M8161 3634 c0 -11 3 -14 6 -6 3 7 2 16 -1 19 -3 4 -6 -2 -5 -13z"/>
<path d="M2190 3610 c0 -6 7 -10 15 -10 8 0 15 2 15 4 0 2 -7 6 -15 10 -8 3
-15 1 -15 -4z"/>
<path d="M8182 3580 c0 -14 2 -19 5 -12 2 6 2 18 0 25 -3 6 -5 1 -5 -13z"/>
<path d="M2174 3558 c-4 -7 -3 -8 4 -4 7 4 12 2 12 -4 0 -6 5 -8 10 -5 11 7 4
25 -10 25 -5 0 -12 -5 -16 -12z"/>
<path d="M2353 3545 c0 -8 6 -16 14 -19 15 -6 15 -4 7 18 -8 20 -21 21 -21 1z"/>
<path d="M2350 3463 c0 -12 3 -14 8 -7 4 7 16 14 27 17 15 4 14 5 -7 6 -21 1
-28 -4 -28 -16z"/>
<path d="M8130 3393 c-8 -21 -17 -42 -19 -48 -2 -5 4 -3 13 5 18 17 39 80 27
80 -4 0 -13 -17 -21 -37z"/>
<path d="M2104 3402 c11 -12 74 -52 140 -89 67 -36 180 -101 251 -143 186
-109 207 -121 211 -117 5 4 -276 171 -441 261 -115 64 -140 78 -160 95 -20 16
-20 16 -1 -7z"/>
<path d="M7612 3369 c7 -5 36 -8 63 -8 60 1 50 6 -23 12 -32 2 -48 1 -40 -4z"/>
<path d="M7748 3373 c7 -3 16 -2 19 1 4 3 -2 6 -13 5 -11 0 -14 -3 -6 -6z"/>
<path d="M7140 3221 c-58 -32 -213 -116 -345 -188 -132 -72 -265 -144 -295
-162 -30 -17 -127 -68 -215 -112 -88 -45 -233 -120 -323 -167 l-162 -86 127
-63 c71 -35 144 -68 163 -74 19 -6 39 -15 45 -20 22 -21 75 -7 175 49 58 32
159 87 225 121 66 35 170 92 230 126 61 34 184 104 275 155 269 151 460 262
460 267 0 2 -3 2 -7 0 -57 -33 -273 -152 -320 -176 -71 -35 -88 -39 -55 -12
15 13 18 21 10 24 -8 3 -6 6 5 6 10 1 17 8 16 19 0 10 -3 12 -6 5 -2 -7 -9
-13 -15 -13 -6 0 -8 7 -4 15 7 19 -25 36 -63 33 -30 -2 -65 18 -56 32 3 5 0
12 -6 16 -9 5 -10 0 -7 -14 4 -12 2 -25 -3 -28 -5 -3 -9 6 -9 20 0 14 -4 25
-8 23 -5 -1 -21 12 -36 28 -18 19 -24 23 -17 10 9 -19 7 -20 -23 -17 -19 2
-48 -4 -67 -13 -19 -10 -29 -13 -24 -7 6 6 89 54 185 108 266 148 276 154 265
154 -5 0 -57 -27 -115 -59z m-415 -251 c-3 -5 -12 -10 -18 -10 -7 0 -6 4 3 10
19 12 23 12 15 0z"/>
</g>
</svg>
